# xmcd CD database file
#
# Track frame offsets:
#	205
#	17145
#	32046
#	46321
#	59009
#	79404
#	95353
#	106345
#	123026
#	135949
#
# Disc length: 1934 seconds
#
# Revision: 3
# Processed by: cddbd v1.5.2PL0 Copyright (c) Steve Scherf et al.
# Submitted via: CDex 1.51
#
DISCID=7b078c0a
DTITLE=Toby Keith - Classic Christmas - Volume Two
DYEAR=2007
DGENRE=Christmas
TTITLE0=Little Drummer Boy
TTITLE1=Go Tell It On The Mountain
TTITLE2=The First Noel
TTITLE3=O Come All Ye Faithful
TTITLE4=Silent Night
TTITLE5=Away In A Manger
TTITLE6=We Three Kings
TTITLE7=O Little Town Of Bethlehem
TTITLE8=God Rest Ye Merry Gentlemen
TTITLE9=Joy To The World
EXTD=YEAR: 2007
EXTT0=
EXTT1=
EXTT2=
EXTT3=
EXTT4=
EXTT5=
EXTT6=
EXTT7=
EXTT8=
EXTT9=
PLAYORDER=
